<svg xmlns="http://www.w3.org/2000/svg" xmlns:xlink="http://www.w3.org/1999/xlink" version="1.1" height="1967.2972668091422" width="3000"><rect height="1967.2972668091422" width="3000" fill="#1f527a"/><g transform="scale(9.35016700735209)"><g id="SvgjsG4015" rel="mainfill" transform="translate(-4.991681098937988,79.02989959716797)" fill="#ffffff"><path fill="#ffffff" d="M8.9267 79.64773789295734 q-3.27918217 -5.465303617 -3.935018604 -10.74843045 q0 -37.9292071 0 -37.85633639 l5.101 0 l0 22.298 q3.242746813 -3.971453962 7.250636132 -5.920745585 t8.7809 -1.9493 q8.453002928 0 14.46483691 6.157575409 t6.0118 14.938 q0 8.635179715 -6.048269336 14.75631977 t-14.574 6.1211 q-4.882337898 0 -9.163492398 -1.876420909 t-7.8883 -5.9207 z M25.541 82.52603789295735 q4.335807536 0 7.961125602 -2.131468411 t5.775 -5.9207 t2.1497 -8.0886 q0 -4.226501464 -2.167903768 -8.106867032 t-5.8297 -6.0118 t-7.8154 -2.1315 q-4.226501464 0 -8.015778639 2.131468411 t-5.8297 5.7932 t-2.0404 8.1797 q0 6.959153273 4.590855038 11.62287903 t11.222 4.6637 z M56.11047721482291 31.990237892957346 l5.1738 0 l0 55.418 l-5.1738 0 l0 -55.418 z M90.7970444835112 45.47123789295734 q9.218145434 0 15.30285013 6.667670413 q5.611045047 6.084704694 5.611045047 14.46483691 q0.0728707149 20.69528303 0 21.02320125 l-5.4289 0 l0 -9.0724 q-4.262936821 7.942907924 -15.48502692 8.890227217 q-9.181710077 0 -14.99314959 -6.248663802 t-5.8114 -14.592 q0 -8.307261498 5.501738975 -14.42840155 q6.084704694 -6.70410577 15.30285013 -6.70410577 z M90.7970444835112 50.499237892957346 q-6.376187553 0 -10.96704259 4.736596468 t-4.5909 11.441 q0 4.335807536 2.350080555 8.343696856 t7.9611 6.777 q14.06404798 3.133440741 20.00301124 -12.78881046 q0.327918217 -5.100950043 -1.093060723 -9.764675796 q-1.020190009 -2.113250732 -2.805522524 -4.007889319 q-4.481548966 -4.736596468 -10.85773652 -4.736596468 z M160.46174275785148 54.79923789295734 l-4.0808 2.5505 q-5.28312683 -7.068459345 -14.42840155 -7.068459345 q-7.323506847 0 -12.15119171 4.700161111 t-4.8277 11.441 q0 4.372242894 2.222556804 8.252608462 t6.0847 5.9936 t8.6716 2.1133 q8.85379186 0 14.42840155 -6.99558863 l4.0808 2.6598 q-2.878393238 4.299372179 -7.7060781 6.649452734 t-11.022 2.3501 q-9.436757579 0 -15.68542138 -6.011833979 t-6.2487 -14.611 q0 -5.829657192 2.933046275 -10.80308348 t8.0158 -7.7607 t11.422 -2.7873 q3.935018604 0 7.633207385 1.202366796 t6.2851 3.1517 t4.3722 4.9734 z M170.22600959384704 31.990237892957346 l5.1738 0 l0 31.553 l18.473 -16.104 l7.5786 0 l-16.724 15.194 l17.999 24.776 l-7.2871 0 l-15.74 -21.497 l-4.2994 3.5342 l0 17.963 l-5.1738 0 l0 -55.418 z M228.0851045528091 50.86423789295734 l-3.2792 3.4249 q-4.153630749 -4.007889319 -8.052213996 -4.007889319 q-2.514039664 0 -4.299372179 1.639591085 t-1.7853 3.8986 q0 1.894638587 1.493849655 3.643535745 q1.457414298 1.85820323 6.157575409 4.262936821 q5.756786477 2.951263953 7.797166494 5.720351119 q2.00394466 2.805522524 2.00394466 6.303316839 q0 4.882337898 -3.443141279 8.289043819 t-8.617 3.4067 q-3.461358958 0 -6.613017377 -1.475631977 t-5.192 -4.1354 l3.2427 -3.68 q3.935018604 4.445113609 8.343696856 4.445113609 q3.060570026 0 5.228473794 -1.985726981 t2.1679 -4.6455 q0 -2.222556804 -1.42097894 -3.935018604 t-6.4491 -4.2994 q-5.42886826 -2.732651809 -7.359942205 -5.501738975 q-1.967509302 -2.696216451 -1.967509302 -6.194010766 q0 -4.554419681 3.115223062 -7.560336671 t7.8154 -3.0059 q5.501738975 0 11.11278402 5.392432902 z M270.78739051142713 73.19823789295734 l4.2994 2.2954 q-2.076815375 4.190066107 -4.882337898 6.740541128 t-6.3033 3.8804 t-7.9065 1.3299 q-9.764675796 0 -15.26641477 -6.394405232 t-5.5017 -14.447 q0 -7.614989707 4.663725753 -13.55395297 q5.902527907 -7.578554349 15.84938049 -7.578554349 q10.16546473 0 16.28660478 7.760731136 q4.335807536 5.465303617 4.372242894 13.62682369 l-35.889 0 q0.1457414298 6.99558863 4.445113609 11.45891992 t10.603 4.4633 q3.060570026 0 5.938963264 -1.074843045 t4.9006 -2.8237 t4.3905 -5.6839 z M270.78739051142713 62.45023789295735 q-1.020190009 -4.117195392 -2.987699311 -6.576582019 t-5.2103 -3.9715 t-6.8134 -1.5121 q-5.866092549 0 -10.09259401 3.789277175 q-3.060570026 2.769087166 -4.627290396 8.270826141 l29.731 0 z M304.8547694921123 45.47123789295734 q9.218145434 0 15.30285013 6.667670413 q5.611045047 6.084704694 5.611045047 14.46483691 q0.0728707149 20.69528303 0 21.02320125 l-5.4289 0 l0 -9.0724 q-4.262936821 7.942907924 -15.48502692 8.890227217 q-9.181710077 0 -14.99314959 -6.248663802 t-5.8114 -14.592 q0 -8.307261498 5.501738975 -14.42840155 q6.084704694 -6.70410577 15.30285013 -6.70410577 z M304.8547694921123 50.499237892957346 q-6.376187553 0 -10.96704259 4.736596468 t-4.5909 11.441 q0 4.335807536 2.350080555 8.343696856 t7.9611 6.777 q14.06404798 3.133440741 20.00301124 -12.78881046 q0.327918217 -5.100950043 -1.093060723 -9.764675796 q-1.020190009 -2.113250732 -2.805522524 -4.007889319 q-4.481548966 -4.736596468 -10.85773652 -4.736596468 z" style="fill: #ffffff;"/></g><g id="SvgjsG4016" rel="mainfill" transform="translate(78.13735675811768,149.68398094177246)" fill="#ffffff"><path fill="#ffffff" d="M20.703 41.4059375 q-1.025390625 -1.831054688 -2.600097656 -2.685546875 t-3.6499 -0.85449 q-1.586914063 0 -2.978515625 0.6591796875 t-2.4292 1.8799 t-1.6357 2.9663 t-0.59814 3.894 q0 2.124023438 0.5981445313 3.833007813 t1.6479 2.9175 t2.4292 1.8555 t2.9663 0.64697 q2.34375 0 4.077148438 -1.135253906 t2.7588 -3.3325 l3.7598 1.8555 q-0.732421875 1.5625 -1.806640625 2.807617188 t-2.4292 2.124 t-2.9785 1.355 t-3.4302 0.47607 q-2.63671875 0 -4.870605469 -0.9887695313 t-3.8574 -2.771 t-2.5269 -4.248 t-0.90332 -5.3955 t0.95215 -5.3955 t2.6123 -4.2358 t3.8818 -2.771 t4.7607 -1.001 q2.392578125 0 4.528808594 0.830078125 t3.7476 2.5146 l2.5635 0 l0 4.1992 l-4.5898 0 z M29.394521875 47.3149375 q0.0244140625 -3.002929688 0.9643554688 -5.46875 t2.6245 -4.2358 t4.0039 -2.7222 t5.1025 -0.95215 q2.807617188 0 5.139160156 0.9521484375 t3.9917 2.6978 t2.5879 4.2114 t0.92773 5.4688 q0 2.954101563 -0.927734375 5.432128906 t-2.5879 4.2603 t-3.9917 2.771 t-5.1392 0.98877 q-2.856445313 0 -5.17578125 -0.9765625 t-3.9795 -2.7466 t-2.5879 -4.2358 t-0.95215 -5.4443 z M34.204121875 47.3149375 q0 2.172851563 0.6225585938 3.930664063 t1.709 2.9907 t2.5146 1.9043 t3.0396 0.67139 q1.684570313 0 3.137207031 -0.6591796875 t2.5269 -1.8921 t1.6846 -2.9907 t0.61035 -3.9551 q0 -2.294921875 -0.6103515625 -4.077148438 t-1.6724 -2.9785 t-2.5269 -1.8066 t-3.1494 -0.61035 q-1.611328125 0 -3.039550781 0.6103515625 t-2.5146 1.8066 t-1.709 2.9785 t-0.62256 4.0771 z M74.5601484375 21.9729375 l7.9834 0 l0 33.789 l3.7109 0 l0 4.1992 l-8.252 0 l0 -2.0752 q-1.220703125 1.245117188 -2.83203125 1.940917969 t-3.6621 0.6958 q-2.563476563 0 -4.772949219 -0.8911132813 t-3.833 -2.6123 t-2.5391 -4.2236 t-0.91553 -5.7251 q0 -2.9296875 0.87890625 -5.334472656 t2.4902 -4.1016 t3.8818 -2.6367 t5.0537 -0.93994 q1.831054688 0 3.344726563 0.4028320313 t2.9053 1.4038 l0 -9.6924 l-3.4424 0 l0 -4.1992 z M72.0951484375 56.5673375 q2.026367188 0 3.393554688 -0.5981445313 t2.5146 -1.7944 l0 -14.16 q-1.220703125 -1.025390625 -2.807617188 -1.489257813 t-3.2471 -0.46387 q-1.611328125 0 -3.02734375 0.5981445313 t-2.478 1.7456 t-1.6724 2.8076 t-0.61035 3.8086 q0 2.34375 0.5859375 4.125976563 t1.6357 2.9907 t2.5146 1.8188 t3.1982 0.61035 z M94.8974796875 47.8999375 q0 1.07421875 0.1586914063 1.965332031 t0.45166 1.6968 q0.9033203125 2.44140625 2.893066406 3.674316406 t4.5044 1.2329 q1.977539063 0 3.845214844 -0.5493164063 t3.9185 -1.7212 l1.8311 3.1006 q-2.490234375 1.708984375 -5.004882813 2.5390625 t-5.2246 0.83008 q-2.563476563 0 -4.748535156 -0.8544921875 t-3.7598 -2.5391 t-2.4658 -4.1992 t-0.89111 -5.8594 q0 -2.709960938 0.7568359375 -5.114746094 t2.2583 -4.1992 t3.7231 -2.8442 t5.1758 -1.0498 q2.856445313 0 4.772949219 0.8666992188 t3.125 2.2949 t1.8311 3.2593 t0.8667 3.7354 q0.1220703125 0.927734375 0.1586914063 1.879882813 t0.036621 1.8555 l-18.213 0 z M102.0021796875 37.8169375 q-1.586914063 0 -2.770996094 0.4516601563 t-2.0142 1.2939 t-1.3306 2.063 t-0.74463 2.7344 l13.11 0 q-0.09765625 -1.416015625 -0.4516601563 -2.612304688 t-1.0864 -2.0752 t-1.8799 -1.3672 t-2.832 -0.48828 z M137.475703125 40.0149375 l-4.6387 0 l0 -1.5625 q-0.8056640625 0 -1.647949219 0.3051757813 t-1.5747 0.92773 t-1.2817 1.5869 t-0.79346 2.2827 l0 12.207 l4.2969 0 l0 4.1992 l-12.549 0 l0 -4.1992 l3.4912 0 l0.024414 -16.895 l-3.5156 0 l0 -4.1992 l8.0811 0 l0 3.4912 q0.439453125 -0.78125 0.9887695313 -1.452636719 t1.2207 -1.1719 t1.4893 -0.78125 t1.77 -0.28076 l2.3926 0 t2.2461 0.048828 l0 5.4932 z M156.848203125 39.709937499999995 q-0.4760742188 -0.7202148438 -1.232910156 -1.171875 t-1.6846 -0.65918 t-1.8066 -0.20752 q-0.9765625 0 -1.794433594 0.2197265625 t-1.4038 0.63477 t-0.91553 1.0132 t-0.32959 1.3306 q0 1.26953125 0.7690429688 2.014160156 t2.5757 1.3794 l4.8584 1.709 q3.125 1.049804688 4.565429688 2.856445313 t1.4404 4.3213 q0 1.684570313 -0.6713867188 3.088378906 t-1.9043 2.3926 t-2.9663 1.5381 t-3.8574 0.54932 q-2.954101563 0 -4.809570313 -0.9521484375 t-2.8564 -2.5146 l-2.5391 0 l0 -4.1992 l5.0537 0 q0 1.049804688 0.4516601563 1.794433594 t1.1963 1.2085 t1.6846 0.68359 t1.9165 0.21973 q0.9521484375 0 1.831054688 -0.2319335938 t1.5503 -0.68359 t1.062 -1.0864 t0.39063 -1.4404 q0 -1.220703125 -0.7934570313 -2.075195313 t-2.6978 -1.5381 l-4.834 -1.8066 q-2.954101563 -1.049804688 -4.382324219 -2.673339844 t-1.4282 -4.0649 q0 -1.611328125 0.5981445313 -2.978515625 t1.7334 -2.356 t2.771 -1.5503 t3.7354 -0.56152 q2.709960938 0 4.541015625 0.7568359375 t3.2959 2.5879 l2.3682 0 l0 4.1992 l-5.0049 0 q0 -1.025390625 -0.4760742188 -1.745605469 z" style="fill: #ffffff;"/></g><defs id="SvgjsDefs4014"/><g id="SvgjsG4017" fill="#ffffff" rel="mainfill" transform="translate(104.44455838491858,-5.979824669226626) scale(1.1196076726336595)"><g xmlns="http://www.w3.org/2000/svg" display="none" fill="#ffffff"/><g xmlns="http://www.w3.org/2000/svg" fill="#ffffff"><g fill="#ffffff"><path d="M50,36.723c0.557,0,1.008-0.451,1.008-1.008V24.249c0-0.557-0.451-1.008-1.008-1.008s-1.008,0.451-1.008,1.008v11.465    C48.992,36.272,49.443,36.723,50,36.723z" fill="#ffffff" style="fill: #ffffff;"/><path d="M76.4,63.123h11.465c0.557,0,1.008-0.451,1.008-1.008s-0.451-1.008-1.008-1.008H76.4c-0.557,0-1.008,0.451-1.008,1.008    S75.843,63.123,76.4,63.123z" fill="#ffffff" style="fill: #ffffff;"/><path d="M11.127,62.114c0,0.557,0.451,1.008,1.008,1.008H23.6c0.557,0,1.008-0.451,1.008-1.008s-0.451-1.008-1.008-1.008H12.136    C11.579,61.106,11.127,61.557,11.127,62.114z" fill="#ffffff" style="fill: #ffffff;"/><path d="M68.668,44.455c0.258,0,0.516-0.098,0.713-0.295l8.106-8.107c0.394-0.394,0.394-1.032,0-1.426s-1.032-0.394-1.426,0    l-8.106,8.107c-0.394,0.394-0.394,1.032,0,1.426C68.152,44.356,68.41,44.455,68.668,44.455z" fill="#ffffff" style="fill: #ffffff;"/><path d="M22.513,34.626c-0.394,0.394-0.394,1.032,0,1.426l8.106,8.107c0.197,0.197,0.455,0.295,0.713,0.295    s0.516-0.098,0.713-0.295c0.394-0.394,0.394-1.032,0-1.426l-8.106-8.107C23.545,34.233,22.907,34.233,22.513,34.626z" fill="#ffffff" style="fill: #ffffff;"/><path d="M93.992,69.249H64.656c0.842-1.975,1.275-4.069,1.275-6.251c0-8.794-7.14-15.948-15.915-15.948    c-8.794,0-15.948,7.154-15.948,15.948c0,2.181,0.433,4.276,1.275,6.251H6.008C5.451,69.249,5,69.7,5,70.257    c0,0.557,0.451,1.008,1.008,1.008h87.983c0.557,0,1.008-0.451,1.008-1.008C95,69.7,94.549,69.249,93.992,69.249z M62.416,69.249    H37.584c-0.98-1.955-1.499-4.05-1.499-6.251c0-7.682,6.249-13.932,13.932-13.932c7.664,0,13.899,6.249,13.899,13.932    C63.915,65.199,63.395,67.294,62.416,69.249z" fill="#ffffff" style="fill: #ffffff;"/><path d="M74.802,81.349H25.198c-0.557,0-1.008,0.451-1.008,1.008c0,0.557,0.451,1.008,1.008,1.008h49.604    c0.557,0,1.008-0.451,1.008-1.008C75.81,81.8,75.359,81.349,74.802,81.349z" fill="#ffffff" style="fill: #ffffff;"/><path d="M61.731,92.642H38.269c-0.557,0-1.008,0.451-1.008,1.008c0,0.557,0.451,1.008,1.008,1.008h23.463    c0.557,0,1.008-0.451,1.008-1.008C62.74,93.093,62.288,92.642,61.731,92.642z" fill="#ffffff" style="fill: #ffffff;"/><path d="M70.358,7.224c0.605,0,1.188,0.092,1.739,0.258V5.537c-0.56-0.126-1.141-0.196-1.739-0.196    c-3.376,0-6.251,2.12-7.384,5.098c-1.134-2.979-4.008-5.098-7.385-5.098c-0.803,0-1.576,0.123-2.305,0.346v1.997    c0.711-0.295,1.489-0.46,2.305-0.46c3.322,0,6.025,2.703,6.025,6.025c0,0.298-0.029,0.589-0.071,0.875h1.903h0.959    c-0.042-0.287-0.071-0.577-0.071-0.875C64.334,9.927,67.036,7.224,70.358,7.224z" fill="#ffffff" style="fill: #ffffff;"/><path d="M93.256,20.634c0.605,0,1.188,0.092,1.739,0.258v-1.945c-0.56-0.126-1.141-0.196-1.739-0.196    c-3.376,0-6.251,2.12-7.384,5.098c-1.134-2.978-4.008-5.098-7.385-5.098c-0.803,0-1.576,0.123-2.305,0.346v1.997    c0.711-0.296,1.489-0.46,2.305-0.46c3.322,0,6.025,2.703,6.025,6.025c0,0.298-0.029,0.589-0.071,0.875h1.903h0.959    c-0.042-0.287-0.071-0.577-0.071-0.875C87.231,23.336,89.934,20.634,93.256,20.634z" fill="#ffffff" style="fill: #ffffff;"/></g></g></g></g></svg>
